# xmcd CD database file
#
# Track frame offsets:
#	150
#	20360
#	41505
#	59120
#	72768
#	92933
#	108653
#	122456
#	132476
#	144542
#	157114
#	173202
#	188427
#	203825
#	217237
#	238289
#	263106
#	284633
#	300138
#	318871
#
# Disc length: 4629 seconds
#
# Revision: 1
# Processed by: cddbd v1.4PL0 Copyright (c) Steve Scherf et al.
# Submitted via: CDex 1.50Beta7
#
DISCID=30121314
DTITLE=Various Artist - The Jazz of Love Songs CD2
DYEAR=1900
DGENRE=Jazz
TTITLE0=Diana Krall/S'wonderful
TTITLE1=Diana Krall/Teh Look of Love
TTITLE2=Eric Bibb/Lonesome Valley
TTITLE3=Eric Bibb/Braggin'
TTITLE4=Lisa Wahlandt/Agua De Beber
TTITLE5=Lisa Wahlandt/Corcovado
TTITLE6=Lisa Wahlandt/Bim Bom
TTITLE7=Nat King Cole/Aquellos Ojos Verdes
TTITLE8=Nat King Cole/Te Quiero, Dijiste
TTITLE9=Nat King Cole/Quizas, Quizas, Quizas
TTITLE10=Laura Fygi/Historia De Un Amor
TTITLE11=Laura Fygi/Perfidia
TTITLE12=Louis Armstrong/La Vie En Rose
TTITLE13=Louis Armstrong/Moon Rive
TTITLE14=B. B. King/Ten Long Years
TTITLE15=B. B. King/Never Make You is to Love You
TTITLE16=Jennifer Warnes/Teh Well
TTITLE17=Jennifer Warnes/It's Raining
TTITLE18=Steely Dan/Almost Gothic
TTITLE19=Steely Dan/Jack of Speed
EXTD=
EXTT0=
EXTT1=
EXTT2=
EXTT3=
EXTT4=
EXTT5=
EXTT6=
EXTT7=
EXTT8=
EXTT9=
EXTT10=
EXTT11=
EXTT12=
EXTT13=
EXTT14=
EXTT15=
EXTT16=
EXTT17=
EXTT18=
EXTT19=
PLAYORDER=
